<svg width="25" height="25" viewBox="0 0 25 25" fill="none" xmlns="http://www.w3.org/2000/svg">
<path d="M11.0486 16.4641L7.28038 12.6063M7.28038 12.6063L11.0486 8.73951M7.28038 12.6063L17.329 12.5943M1 12.6138C1 11.0922 1.2924 9.58509 1.86052 8.17863C2.42863 6.77216 3.26133 5.49384 4.31107 4.41665C5.3608 3.33945 6.60702 2.48448 7.97857 1.90055C9.35012 1.31663 10.8201 1.01517 12.3047 1.01341C13.7892 1.01164 15.2593 1.3096 16.6308 1.89026C18.0024 2.47093 19.2486 3.32293 20.2983 4.39763C21.348 5.47232 22.1807 6.74866 22.7489 8.15377C23.317 9.55889 23.6094 11.0653 23.6094 12.5869C23.6094 15.6599 22.4183 18.6085 20.2983 20.784C18.1783 22.9595 15.3029 24.1837 12.3047 24.1872C9.3065 24.1908 6.43111 22.9735 4.31107 20.803C2.19103 18.6326 1 15.6868 1 12.6138Z" stroke="#AFAFAF" stroke-linecap="round" stroke-linejoin="round"/>
</svg>
