<svg width="14" height="14" viewBox="0 0 14 14" fill="none" xmlns="http://www.w3.org/2000/svg">
<path d="M7.27605 5.15646L9.27604 7.22913M9.27604 7.22913L7.27605 9.30657M9.27604 7.22913L3.94271 7.23548M12.6094 7.22517C12.6094 8.04267 12.4542 8.85235 12.1527 9.60798C11.8511 10.3636 11.4092 11.0504 10.852 11.6291C10.2949 12.2078 9.63343 12.6672 8.90548 12.9809C8.17753 13.2946 7.39731 13.4565 6.60938 13.4575C5.82145 13.4584 5.04123 13.2983 4.31328 12.9863C3.58533 12.6744 2.92389 12.2166 2.36674 11.6392C1.80959 11.0618 1.36763 10.3761 1.06611 9.62117C0.764578 8.86626 0.609384 8.05695 0.609384 7.23945C0.609384 5.58843 1.24152 4.00428 2.36674 2.8355C3.49196 1.66671 5.01808 1.00903 6.60938 1.00714C8.20068 1.00525 9.7268 1.65929 10.852 2.8254C11.9772 3.99151 12.6094 5.57415 12.6094 7.22517Z" stroke="#F3F3F3" stroke-linecap="round" stroke-linejoin="round"/>
</svg>
