<svg width="12" height="12" viewBox="0 0 12 12" fill="none" xmlns="http://www.w3.org/2000/svg">
<path d="M6 11.25C7.16375 11.2499 8.29452 10.8634 9.21477 10.151C10.135 9.43865 10.7926 8.44084 11.0843 7.31425M6 11.25C4.83625 11.2499 3.70548 10.8634 2.78524 10.151C1.86499 9.43865 1.20738 8.44084 0.915669 7.31425M6 11.25C7.44959 11.25 8.625 8.89917 8.625 6C8.625 3.10083 7.44959 0.75 6 0.75M6 11.25C4.55042 11.25 3.375 8.89917 3.375 6C3.375 3.10083 4.55042 0.75 6 0.75M11.0843 7.31425C11.1923 6.89425 11.25 6.45383 11.25 6C11.2514 5.09707 11.0189 4.20916 10.5751 3.42283M11.0843 7.31425C9.52868 8.17664 7.7787 8.62779 6 8.625C4.1555 8.625 2.42242 8.14958 0.915669 7.31425M0.915669 7.31425C0.805271 6.8849 0.749608 6.44332 0.750002 6C0.750002 5.06375 0.995002 4.18408 1.42492 3.42283M6 0.75C6.93114 0.749612 7.84562 0.996959 8.64961 1.46666C9.4536 1.93637 10.1182 2.61151 10.5751 3.42283M6 0.75C5.06886 0.749612 4.15438 0.996959 3.35039 1.46666C2.5464 1.93637 1.88185 2.61151 1.42492 3.42283M10.5751 3.42283C9.30498 4.52296 7.68031 5.12742 6 5.125C4.25117 5.125 2.65167 4.48333 1.42492 3.42283" stroke="#797683" stroke-linecap="round" stroke-linejoin="round"/>
</svg>
