<svg width="18" height="18" viewBox="0 0 18 18" fill="none" xmlns="http://www.w3.org/2000/svg">
<path d="M5.5 7.01217V6.5C5.5 6.1519 5.63828 5.81806 5.88442 5.57192C6.13056 5.32578 6.4644 5.1875 6.8125 5.1875H11.1875C11.5356 5.1875 11.8694 5.32578 12.1156 5.57192C12.3617 5.81806 12.5 6.1519 12.5 6.5V7.01217M5.5 7.01217C5.63708 6.96375 5.78408 6.9375 5.9375 6.9375H12.0625C12.2159 6.9375 12.3629 6.96375 12.5 7.01217M5.5 7.01217C5.24404 7.10266 5.02244 7.2703 4.86573 7.49199C4.70902 7.71368 4.62492 7.97851 4.625 8.25V8.76217M12.5 7.01217C12.756 7.10266 12.9776 7.2703 13.1343 7.49199C13.291 7.71368 13.3751 7.97851 13.375 8.25V8.76217M4.625 8.76217C4.76208 8.71375 4.90908 8.6875 5.0625 8.6875H12.9375C13.0865 8.68733 13.2345 8.71258 13.375 8.76217M4.625 8.76217C4.11517 8.94242 3.75 9.42833 3.75 10V13.5C3.75 13.8481 3.88828 14.1819 4.13442 14.4281C4.38056 14.6742 4.7144 14.8125 5.0625 14.8125H12.9375C13.2856 14.8125 13.6194 14.6742 13.8656 14.4281C14.1117 14.1819 14.25 13.8481 14.25 13.5V10C14.2501 9.72851 14.166 9.46368 14.0093 9.24199C13.8526 9.0203 13.631 8.85266 13.375 8.76217" stroke="#DDDDDD" stroke-linecap="round" stroke-linejoin="round"/>
</svg>
