<svg width="12" height="14" viewBox="0 0 12 14" fill="none" xmlns="http://www.w3.org/2000/svg">
<path d="M7.7745 12.642L6.98233 9.68337M6.98233 9.68337L5.51817 10.9813L5.85008 5.45712L8.89917 10.0754L6.98233 9.68337ZM2.59683 9.52762C2.03725 8.96797 1.62433 8.27895 1.39464 7.5216C1.16495 6.76425 1.12558 5.96194 1.28002 5.18575C1.43446 4.40955 1.77795 3.68342 2.28004 3.07167C2.78214 2.45992 3.42736 1.98145 4.15855 1.67862C4.88973 1.3758 5.68432 1.25797 6.47192 1.33557C7.25952 1.41318 8.01582 1.68383 8.67384 2.12354C9.33186 2.56325 9.87128 3.15846 10.2443 3.85643C10.6174 4.55441 10.8125 5.33362 10.8125 6.12503M3.83467 8.29037C3.4785 7.93426 3.21565 7.4958 3.06942 7.01384C2.92319 6.53188 2.89808 6.02129 2.99633 5.52731C3.09457 5.03332 3.31313 4.57119 3.63264 4.18186C3.95215 3.79252 4.36276 3.488 4.82808 3.29527C5.2934 3.10253 5.79908 3.02754 6.30031 3.07693C6.80154 3.12632 7.28285 3.29856 7.70161 3.57841C8.12036 3.85825 8.46364 4.23706 8.70102 4.68127C8.9384 5.12548 9.06256 5.62138 9.0625 6.12503" stroke="#797683" stroke-linecap="round" stroke-linejoin="round"/>
</svg>
