<svg width="17" height="16" viewBox="0 0 17 16" fill="none" xmlns="http://www.w3.org/2000/svg">
<path d="M11.2311 8.45259L8.67839 10.7859M8.67839 10.7859L6.12008 8.45259M8.67839 10.7859L8.67099 4.5637M8.68302 14.6748C7.67623 14.6748 6.67908 14.4937 5.74851 14.142C4.81793 13.7902 3.97216 13.2746 3.25948 12.6246C2.5468 11.9745 1.98116 11.2029 1.59487 10.3536C1.20858 9.50431 1.00919 8.59406 1.0081 7.67481C1.00701 6.75556 1.20422 5.84531 1.5885 4.99603C1.97277 4.14675 2.53657 3.37508 3.2477 2.72507C3.95884 2.07506 4.80338 1.55944 5.73312 1.20766C6.66285 0.855874 7.65957 0.674815 8.66636 0.674815C10.6997 0.674815 12.6506 1.41231 14.0899 2.72507C15.5292 4.03782 16.3391 5.8183 16.3413 7.67481C16.3435 9.53132 15.5379 11.3118 14.1017 12.6246C12.6655 13.9373 10.7163 14.6748 8.68302 14.6748Z" stroke="#AFAFAF" stroke-linecap="round" stroke-linejoin="round"/>
</svg>
