<svg width="307" height="309" viewBox="0 0 307 309" fill="none" xmlns="http://www.w3.org/2000/svg">
<g filter="url(#filter0_d_305_45)">
<rect x="4" width="299" height="301" rx="100" fill="url(#paint0_linear_305_45)" shape-rendering="crispEdges"/>
<path d="M126.316 201.566H102.501C88.3161 201.566 79.4246 187.018 86.4607 175.321L101.89 149.701" stroke="white" stroke-width="5"/>
<path d="M218.667 170.304L221.535 175.321C228.579 187.01 219.687 201.566 205.495 201.566H191.358" stroke="white" stroke-width="5"/>
<path d="M130.878 101.595L137.962 89.8297C145.054 78.0568 162.942 78.0568 170.034 89.8297L180.138 106.605" stroke="white" stroke-width="5"/>
<path d="M132.999 100.833L154.003 103.158" stroke="white" stroke-width="5"/>
<path d="M115.649 98.9111L132.999 100.833" stroke="white" stroke-width="5"/>
<path d="M101.691 149.556L92.3495 128.969C85.45 113.78 98.4619 97.0048 115.65 98.9111" stroke="white" stroke-width="5"/>
<path d="M167.264 211.479L165.641 213.286C156.662 225.242 135.104 223.168 128.212 207.986L101.69 149.556" stroke="white" stroke-width="5"/>
<path d="M179.792 106.018L203.551 108.648C220.434 110.516 228.868 129.098 218.868 142.412L214.787 147.848" stroke="white" stroke-width="5"/>
<path d="M154.001 103.158L179.792 106.018" stroke="white" stroke-width="5"/>
<path d="M218.042 171.463L187.304 206.477C178.878 216.076 162.959 213.957 157.786 202.55L141.096 165.774C135.915 154.36 145.071 141.58 158.067 142.061L205.496 143.822C220.058 144.364 227.48 160.711 218.042 171.463Z" stroke="white" stroke-width="5"/>
<rect x="4.5" y="0.5" width="298" height="300" rx="99.5" stroke="#282828" shape-rendering="crispEdges"/>
</g>
<defs>
<filter id="filter0_d_305_45" x="0" y="0" width="307" height="309" filterUnits="userSpaceOnUse" color-interpolation-filters="sRGB">
<feFlood flood-opacity="0" result="BackgroundImageFix"/>
<feColorMatrix in="SourceAlpha" type="matrix" values="0 0 0 0 0 0 0 0 0 0 0 0 0 0 0 0 0 0 127 0" result="hardAlpha"/>
<feOffset dy="4"/>
<feGaussianBlur stdDeviation="2"/>
<feComposite in2="hardAlpha" operator="out"/>
<feColorMatrix type="matrix" values="0 0 0 0 0 0 0 0 0 0 0 0 0 0 0 0 0 0 0.25 0"/>
<feBlend mode="normal" in2="BackgroundImageFix" result="effect1_dropShadow_305_45"/>
<feBlend mode="normal" in="SourceGraphic" in2="effect1_dropShadow_305_45" result="shape"/>
</filter>
<linearGradient id="paint0_linear_305_45" x1="303" y1="4.99999" x2="23" y2="286.5" gradientUnits="userSpaceOnUse">
<stop stop-color="#3E3E3E"/>
<stop offset="1" stop-color="#111111" stop-opacity="0.68"/>
</linearGradient>
</defs>
</svg>
