<svg width="18" height="18" viewBox="0 0 18 18" fill="none" xmlns="http://www.w3.org/2000/svg">
<path d="M10.6875 4.56525C10.6875 4.299 10.827 4.05825 10.9883 3.846C11.154 3.6285 11.25 3.3705 11.25 3.09375C11.25 2.31675 10.4948 1.6875 9.5625 1.6875C8.63025 1.6875 7.875 2.3175 7.875 3.09375C7.875 3.3705 7.971 3.6285 8.13675 3.846C8.298 4.05825 8.4375 4.299 8.4375 4.56525C8.43782 4.62956 8.42522 4.69328 8.40044 4.75263C8.37566 4.81197 8.33921 4.86573 8.29324 4.91072C8.24728 4.9557 8.19275 4.99099 8.13288 5.01448C8.07302 5.03798 8.00904 5.04921 7.94475 5.0475C6.90125 5.01744 5.85953 4.94237 4.8225 4.8225C4.962 6.03225 5.04225 7.26 5.05875 8.50275C5.05945 8.56793 5.04718 8.63259 5.02268 8.69299C4.99817 8.75339 4.9619 8.80832 4.91599 8.85458C4.87007 8.90084 4.81542 8.93752 4.75521 8.96249C4.695 8.98745 4.63043 9.0002 4.56525 9C4.299 9 4.05825 8.8605 3.846 8.69925C3.63103 8.53133 3.36652 8.4393 3.09375 8.4375C2.31675 8.4375 1.6875 9.19275 1.6875 10.125C1.6875 11.0573 2.3175 11.8125 3.09375 11.8125C3.3705 11.8125 3.6285 11.7165 3.846 11.5508C4.05825 11.3895 4.299 11.25 4.56525 11.25C4.79775 11.25 4.9815 11.445 4.96425 11.6775C4.87096 12.9491 4.71024 14.2149 4.48275 15.4695C5.62125 15.612 6.77625 15.7012 7.94475 15.735C8.00904 15.7367 8.07302 15.7255 8.13288 15.702C8.19275 15.6785 8.24728 15.6432 8.29324 15.5982C8.33921 15.5532 8.37566 15.4995 8.40044 15.4401C8.42522 15.3808 8.43782 15.3171 8.4375 15.2527C8.4375 14.9865 8.298 14.7458 8.13675 14.5335C7.96883 14.3185 7.8768 14.054 7.875 13.7812C7.875 13.005 8.631 12.375 9.5625 12.375C10.4948 12.375 11.25 13.005 11.25 13.7812C11.25 14.058 11.154 14.316 10.9883 14.5335C10.827 14.7458 10.6883 14.9865 10.6883 15.2527C10.6883 15.5025 10.896 15.702 11.1458 15.6877C12.5104 15.6075 13.8693 15.4497 15.216 15.2153C15.4198 14.0439 15.5654 12.8632 15.6525 11.6775C15.6564 11.6227 15.649 11.5677 15.6307 11.5159C15.6123 11.4641 15.5835 11.4166 15.546 11.3765C15.5084 11.3363 15.463 11.3044 15.4126 11.2826C15.3621 11.2609 15.3077 11.2498 15.2527 11.25C14.9865 11.25 14.7458 11.3895 14.5335 11.5508C14.316 11.7165 14.058 11.8125 13.7812 11.8125C13.005 11.8125 12.375 11.0573 12.375 10.125C12.375 9.19275 13.005 8.4375 13.7812 8.4375C14.0588 8.4375 14.316 8.5335 14.5335 8.69925C14.7458 8.8605 14.9865 9 15.2535 9C15.3187 9.0002 15.3833 8.98745 15.4435 8.96249C15.5037 8.93752 15.5583 8.90084 15.6042 8.85458C15.6502 8.80832 15.6864 8.75339 15.7109 8.69299C15.7354 8.63259 15.7477 8.56793 15.747 8.50275C15.729 7.15865 15.6363 5.81658 15.4695 4.48275C14.055 4.73925 12.612 4.91325 11.145 4.9995C11.086 5.00277 11.0269 4.99394 10.9714 4.97353C10.9159 4.95312 10.8651 4.92157 10.8223 4.88082C10.7794 4.84008 10.7454 4.791 10.7222 4.7366C10.699 4.6822 10.6872 4.62438 10.6875 4.56525Z" stroke="#DDDDDD" stroke-linecap="round" stroke-linejoin="round"/>
</svg>
