<svg width="13" height="13" viewBox="0 0 13 13" fill="none" xmlns="http://www.w3.org/2000/svg">
<path d="M8.3125 3.55075C8.3125 3.34367 8.421 3.15642 8.54642 2.99133C8.67533 2.82217 8.75 2.6215 8.75 2.40625C8.75 1.80192 8.16258 1.3125 7.4375 1.3125C6.71242 1.3125 6.125 1.8025 6.125 2.40625C6.125 2.6215 6.19967 2.82217 6.32858 2.99133C6.454 3.15642 6.5625 3.34367 6.5625 3.55075C6.56275 3.60077 6.55295 3.65033 6.53368 3.69649C6.5144 3.74265 6.48605 3.78446 6.4503 3.81945C6.41455 3.85443 6.37214 3.88188 6.32557 3.90015C6.27901 3.91843 6.22925 3.92716 6.17925 3.92583C5.36764 3.90245 4.55741 3.84407 3.75083 3.75083C3.85933 4.69175 3.92175 5.64667 3.93458 6.61325C3.93512 6.66394 3.92559 6.71424 3.90653 6.76122C3.88746 6.80819 3.85926 6.85091 3.82355 6.8869C3.78784 6.92288 3.74533 6.95141 3.6985 6.97082C3.65167 6.99024 3.60145 7.00016 3.55075 7C3.34367 7 3.15642 6.8915 2.99133 6.76608C2.82413 6.63548 2.61841 6.5639 2.40625 6.5625C1.80192 6.5625 1.3125 7.14992 1.3125 7.875C1.3125 8.60008 1.8025 9.1875 2.40625 9.1875C2.6215 9.1875 2.82217 9.11283 2.99133 8.98392C3.15642 8.8585 3.34367 8.75 3.55075 8.75C3.73158 8.75 3.8745 8.90167 3.86108 9.0825C3.78853 10.0715 3.66352 11.056 3.48658 12.0318C4.37208 12.1427 5.27042 12.2121 6.17925 12.2383C6.22925 12.2397 6.27901 12.2309 6.32557 12.2127C6.37214 12.1944 6.41455 12.1669 6.4503 12.1319C6.48605 12.097 6.5144 12.0551 6.53368 12.009C6.55295 11.9628 6.56275 11.9133 6.5625 11.8632C6.5625 11.6562 6.454 11.4689 6.32858 11.3038C6.19798 11.1366 6.1264 10.9309 6.125 10.7187C6.125 10.115 6.713 9.625 7.4375 9.625C8.16258 9.625 8.75 10.115 8.75 10.7187C8.75 10.934 8.67533 11.1347 8.54642 11.3038C8.421 11.4689 8.31308 11.6562 8.31308 11.8632C8.31308 12.0575 8.47467 12.2127 8.66892 12.2016C9.73028 12.1392 10.7872 12.0165 11.8347 11.8341C11.9932 10.9231 12.1065 10.0047 12.1742 9.0825C12.1772 9.03987 12.1714 8.99707 12.1572 8.95678C12.1429 8.9165 12.1205 8.87959 12.0913 8.84837C12.0621 8.81716 12.0268 8.79231 11.9875 8.77538C11.9483 8.75845 11.906 8.74981 11.8632 8.75C11.6562 8.75 11.4689 8.8585 11.3038 8.98392C11.1347 9.11283 10.934 9.1875 10.7187 9.1875C10.115 9.1875 9.625 8.60008 9.625 7.875C9.625 7.14992 10.115 6.5625 10.7187 6.5625C10.9346 6.5625 11.1347 6.63717 11.3038 6.76608C11.4689 6.8915 11.6562 7 11.8638 7C11.9145 7.00016 11.9648 6.99024 12.0116 6.97082C12.0584 6.95141 12.1009 6.92288 12.1366 6.8869C12.1723 6.85091 12.2005 6.80819 12.2196 6.76122C12.2387 6.71424 12.2482 6.66394 12.2477 6.61325C12.2336 5.56784 12.1616 4.52401 12.0318 3.48658C10.9317 3.68608 9.80933 3.82142 8.66833 3.8885C8.62241 3.89105 8.57646 3.88417 8.53329 3.8683C8.49013 3.85242 8.45066 3.82789 8.41733 3.7962C8.384 3.76451 8.35751 3.72633 8.33948 3.68402C8.32145 3.64171 8.31227 3.59674 8.3125 3.55075Z" stroke="#797683" stroke-linecap="round" stroke-linejoin="round"/>
</svg>
