<svg width="100" height="24" viewBox="0 0 100 24" fill="none" xmlns="http://www.w3.org/2000/svg">
<path d="M8.12691 1.62384C9.28405 1.59202 10.4301 1.87426 11.4602 2.44472C12.3784 2.97055 13.1323 3.7778 13.6272 4.76507C14.1491 5.8331 14.4106 7.02717 14.387 8.23465C14.381 8.84416 14.3267 9.45199 14.2249 10.0515C14.0188 11.4339 13.5237 12.7474 12.7772 13.892C12.0568 14.9931 11.101 15.89 9.99109 16.5067C8.84417 17.1413 7.57151 17.4647 6.28299 17.4492C5.11606 17.4817 3.96003 17.1995 2.91935 16.6283C2.00015 16.1084 1.24558 15.3038 0.752348 14.3177C0.2361 13.2525 -0.0222046 12.0635 0.00149565 10.8615C0.00618826 10.2374 0.0604213 9.61487 0.163599 9.0008C0.369884 7.61789 0.865378 6.30401 1.61239 5.15909C2.33336 4.0569 3.29348 3.16248 4.40867 2.55417C5.56149 1.92762 6.8365 1.6086 8.12691 1.62384ZM7.90402 4.46955C6.71734 4.45179 5.57024 4.93022 4.70248 5.80485C3.7664 6.75736 3.15286 8.02134 2.95988 9.39482C2.89839 9.80021 2.86453 10.2099 2.85856 10.6207C2.85856 11.8465 3.18277 12.8133 3.83118 13.5211C4.47959 14.2289 5.37078 14.5828 6.50475 14.5828C7.28942 14.5897 8.06302 14.3827 8.75393 13.9808C9.4545 13.5681 10.0523 12.9786 10.4965 12.2624C10.9831 11.4801 11.3016 10.59 11.4286 9.65751C11.5 9.24657 11.5339 8.82907 11.5299 8.41098C11.5299 7.18514 11.2057 6.22238 10.5573 5.52271C9.90892 4.82303 9.02448 4.47198 7.90402 4.46955ZM24.1346 5.0168C25.3774 5.0168 26.3669 5.43231 27.1031 6.26332C27.8393 7.09434 28.2074 8.24722 28.2074 9.72196C28.2055 10.2282 28.1648 10.7334 28.0858 11.2324C27.9017 12.415 27.4948 13.5441 26.8903 14.5499C26.3544 15.4457 25.6235 16.186 24.7616 16.7061C23.9437 17.1963 23.0233 17.4521 22.088 17.4492C21.267 17.4902 20.457 17.2319 19.7882 16.7158C19.2053 16.2362 18.8107 15.5373 18.6827 14.7579L17.3263 23.0761H14.4692L17.3882 5.17003H20.2441L19.8186 7.6874C20.2313 6.87688 20.8408 6.2033 21.5815 5.73918C22.356 5.25238 23.2386 5.00266 24.1346 5.0168ZM21.6422 14.736C22.4869 14.7496 23.305 14.4172 23.932 13.8057C24.6094 13.1277 25.0525 12.2204 25.1883 11.2336C25.2266 10.9582 25.2469 10.6802 25.249 10.4018C25.2706 10.0388 25.2234 9.67486 25.1101 9.33232C24.9969 8.98978 24.8201 8.67584 24.5905 8.40977C24.3469 8.16812 24.0608 7.98172 23.7493 7.86161C23.4378 7.7415 23.1072 7.69012 22.777 7.7105C21.9297 7.70331 21.1114 8.04361 20.4873 8.66272C19.8055 9.33712 19.3615 10.2462 19.231 11.2348C19.1917 11.4954 19.1714 11.7589 19.1702 12.0229C19.1513 12.3872 19.2019 12.7518 19.3186 13.0942C19.4354 13.4366 19.6159 13.7496 19.849 14.0136C20.0876 14.2581 20.3693 14.4482 20.6775 14.5723C20.9856 14.6964 21.3137 14.7521 21.6422 14.736ZM33.03 13.0711C32.9995 13.2443 32.9859 13.4203 32.9895 13.5965C32.9735 13.7478 32.9909 13.901 33.0402 14.0437C33.0895 14.1864 33.1693 14.3144 33.2731 14.4174C33.5544 14.5961 33.88 14.6764 34.2052 14.6472H35.3197L34.8739 17.2972H33.3733C32.3061 17.2972 31.4889 17.0641 30.9215 16.5979C30.3542 16.1317 30.0705 15.3656 30.0705 14.2994C30.0735 13.873 30.1142 13.4479 30.1921 13.0298L31.0431 7.77617H29.484L29.9095 5.17125H31.4697L31.9561 2.1723H34.8334L34.3471 5.17125H36.8191L36.3936 7.77617H33.9013L33.03 13.0711ZM39.352 1.99475C39.3471 1.7255 39.3972 1.4584 39.4988 1.21247C39.6004 0.966532 39.7509 0.747816 39.9396 0.571895C40.3478 0.185886 40.8767 -0.0176315 41.4188 0.00275264C41.8119 -0.0215079 42.199 0.115287 42.5029 0.385829C42.6321 0.510503 42.7344 0.664345 42.8025 0.836463C42.8706 1.00858 42.9028 1.19476 42.8969 1.38183C42.9028 1.64858 42.854 1.91345 42.7542 2.15751C42.6544 2.40158 42.5059 2.61882 42.3194 2.79374C41.913 3.17437 41.3878 3.37391 40.8503 3.35194C40.4524 3.37832 40.0594 3.24589 39.746 2.97981C39.6165 2.85799 39.5139 2.70639 39.4457 2.53615C39.3776 2.3659 39.3455 2.18133 39.352 1.99597V1.99475ZM41.9862 5.16882L40.0004 17.2972H37.1445L39.1302 5.17003L41.9862 5.16882ZM58.8854 4.9937C60.0472 4.9937 60.9489 5.33299 61.5905 6.01159C62.2322 6.69018 62.553 7.66429 62.553 8.93392C62.5551 9.37409 62.5212 9.8136 62.4517 10.2473L61.2967 17.2972H58.4396L59.5541 10.5988C59.5933 10.3529 59.6136 10.104 59.6149 9.85452C59.6331 9.55989 59.5938 9.26442 59.4996 8.98725C59.4053 8.71007 59.2582 8.4574 59.0678 8.24559C58.6482 7.85208 58.1027 7.65171 57.5481 7.6874C56.8097 7.66461 56.0902 7.94191 55.5319 8.46449C54.9408 9.07207 54.5585 9.87873 54.4478 10.752L53.3739 17.2972H50.5168L51.6313 10.5988C51.6705 10.3529 51.6908 10.104 51.6921 9.85452C51.7103 9.55989 51.6711 9.26442 51.5768 8.98725C51.4826 8.71007 51.3354 8.4574 51.145 8.24559C50.7254 7.85208 50.1799 7.65171 49.6253 7.6874C48.8759 7.66835 48.1479 7.9579 47.5889 8.49733C46.9857 9.12656 46.6027 9.96186 46.5048 10.8615V10.752L45.4511 17.2972H42.5738L44.5596 5.17003H47.4166L47.0508 7.4466C47.4533 6.69049 48.038 6.06638 48.7427 5.64067C49.4574 5.20863 50.2642 4.98601 51.0831 4.99491C51.8829 4.96089 52.6716 5.20609 53.3323 5.69418C53.9411 6.18532 54.3598 6.90284 54.5075 7.70807C54.982 6.88857 55.6362 6.20812 56.4122 5.72702C57.1613 5.24861 58.0153 4.99581 58.8854 4.99491V4.9937ZM65.9977 1.99475C65.9928 1.7255 66.0429 1.4584 66.1445 1.21247C66.2461 0.966532 66.3966 0.747816 66.5853 0.571895C66.9934 0.185886 67.5224 -0.0176315 68.0645 0.00275264C68.4576 -0.0215079 68.8447 0.115287 69.1486 0.385829C69.2778 0.510503 69.3801 0.664345 69.4482 0.836463C69.5163 1.00858 69.5485 1.19476 69.5426 1.38183C69.5484 1.64858 69.4997 1.91345 69.3999 2.15751C69.3001 2.40158 69.1516 2.61882 68.9651 2.79374C68.5587 3.17437 68.0335 3.37391 67.496 3.35194C67.0981 3.37832 66.7051 3.24589 66.3917 2.97981C66.2622 2.85799 66.1596 2.70639 66.0914 2.53615C66.0232 2.3659 65.9912 2.18133 65.9977 1.99597V1.99475ZM68.6319 5.16882L66.6461 17.2972H63.789L65.7748 5.17003L68.6319 5.16882ZM74.57 5.0168C76.083 5.0168 77.2346 5.38529 78.0248 6.12225C78.42 6.49617 78.7385 6.95506 78.96 7.46957C79.1816 7.98409 79.3013 8.5429 79.3115 9.11025H76.5152C76.5203 8.84258 76.4701 8.57704 76.3685 8.33285C76.2669 8.08867 76.1163 7.87194 75.9276 7.69834C75.4674 7.32712 74.9 7.14478 74.3269 7.18392C73.8854 7.16164 73.4489 7.292 73.0807 7.55606C72.9296 7.66735 72.8068 7.81789 72.7236 7.99384C72.6404 8.16978 72.5994 8.3655 72.6045 8.563C72.6026 8.76707 72.6563 8.96722 72.759 9.13851C72.8617 9.30979 73.0088 9.44462 73.182 9.52617C73.7565 9.81868 74.3574 10.0461 74.9753 10.2048C75.625 10.4029 76.264 10.6404 76.889 10.9162C77.3787 11.1397 77.8152 11.4802 78.1656 11.9122C78.5385 12.3958 78.73 13.0128 78.7025 13.6415C78.7023 13.9211 78.6751 14.1998 78.6215 14.4733C78.5388 14.9173 78.3718 15.338 78.1312 15.7089C77.8906 16.0798 77.5815 16.3928 77.2233 16.6283C76.4533 17.1755 75.4267 17.4492 74.1434 17.4492C72.6709 17.4492 71.4919 17.0884 70.6064 16.3668C70.1736 16.0184 69.8238 15.5637 69.586 15.0403C69.3482 14.5169 69.2291 13.9399 69.2386 13.3569H72.0349C72.0072 13.6248 72.0462 13.8958 72.1477 14.1421C72.2492 14.3883 72.4096 14.6009 72.6124 14.7579C73.134 15.1386 73.757 15.3232 74.3854 15.2833C74.8279 15.3159 75.2666 15.1757 75.6214 14.888C75.7583 14.7659 75.8677 14.6118 75.9414 14.4374C76.0151 14.263 76.0512 14.0728 76.0469 13.8811C76.0505 13.7314 76.0243 13.5826 75.9701 13.4448C75.9159 13.307 75.835 13.1833 75.7329 13.0821C75.5067 12.8595 75.2414 12.6883 74.9528 12.5786C74.6421 12.4546 74.1963 12.305 73.6154 12.1299C72.9827 11.9457 72.3602 11.7223 71.7512 11.461C71.2819 11.2521 70.8652 10.9257 70.5354 10.5088C70.1832 10.0402 70.0029 9.44807 70.0289 8.84514C70.0301 8.58115 70.0504 8.31766 70.0897 8.0571C70.1659 7.60614 70.3289 7.1775 70.5682 6.79895C70.8075 6.42039 71.1177 6.10036 71.4788 5.85957C72.2555 5.29773 73.2856 5.0168 74.5689 5.0168H74.57ZM96.3323 4.99491C97.4941 4.99491 98.3958 5.33421 99.0374 6.0128C99.6791 6.6914 99.9999 7.66551 99.9999 8.93513C100.002 9.3753 99.9681 9.81481 99.8986 10.2485L98.7425 17.2972H95.8854L96.9999 10.5988C97.0391 10.3529 97.0594 10.104 97.0607 9.85452C97.0789 9.55989 97.0396 9.26442 96.9454 8.98725C96.8512 8.71007 96.704 8.4574 96.5136 8.24559C96.094 7.85208 95.5485 7.65171 94.9939 7.6874C94.2555 7.66461 93.536 7.94191 92.9777 8.46449C92.3866 9.07207 92.0043 9.87873 91.8936 10.752L90.8197 17.2972H87.9626L89.0771 10.5988C89.1163 10.3529 89.1366 10.104 89.1379 9.85452C89.1561 9.55989 89.1169 9.26442 89.0226 8.98725C88.9284 8.71007 88.7812 8.4574 88.5908 8.24559C88.1712 7.85208 87.6257 7.65171 87.0711 7.6874C86.3217 7.66835 85.5937 7.9579 85.0347 8.49733C84.4315 9.12656 84.0485 9.96186 83.9506 10.8615V10.752L82.8969 17.2972H80.0196L82.0042 5.17003H84.8613L84.4954 7.4466C84.898 6.69049 85.4827 6.06638 86.1874 5.64067C86.902 5.20863 87.7089 4.98601 88.5277 4.99491C89.3276 4.96089 90.1162 5.20609 90.7769 5.69418C91.3858 6.18532 91.8045 6.90284 91.9522 7.70807C92.4266 6.88857 93.0809 6.20812 93.8569 5.72702C94.6062 5.2484 95.4607 4.99559 96.3312 4.99491H96.3323Z" fill="#D0D0D0"/>
</svg>
