<svg width="18" height="18" viewBox="0 0 18 18" fill="none" xmlns="http://www.w3.org/2000/svg">
<path d="M10.7745 14.642L9.98233 11.6833M9.98233 11.6833L8.51817 12.9813L8.85008 7.45708L11.8992 12.0753L9.98233 11.6833ZM5.59683 11.5276C5.03725 10.9679 4.62433 10.2789 4.39464 9.52157C4.16495 8.76422 4.12558 7.96191 4.28002 7.18572C4.43446 6.40952 4.77795 5.68339 5.28004 5.07164C5.78214 4.45989 6.42736 3.98142 7.15855 3.67859C7.88973 3.37576 8.68432 3.25794 9.47192 3.33554C10.2595 3.41315 11.0158 3.6838 11.6738 4.12351C12.3319 4.56322 12.8713 5.15843 13.2443 5.8564C13.6174 6.55438 13.8125 7.33359 13.8125 8.125M6.83467 10.2903C6.4785 9.93423 6.21565 9.49577 6.06942 9.01381C5.92319 8.53185 5.89808 8.02126 5.99633 7.52728C6.09457 7.03329 6.31313 6.57116 6.63264 6.18183C6.95215 5.79249 7.36276 5.48797 7.82808 5.29524C8.2934 5.1025 8.79908 5.02751 9.30031 5.0769C9.80154 5.12629 10.2829 5.29853 10.7016 5.57838C11.1204 5.85822 11.4636 6.23703 11.701 6.68124C11.9384 7.12545 12.0626 7.62134 12.0625 8.125" stroke="#E7E7E7" stroke-linecap="round" stroke-linejoin="round"/>
</svg>
