<svg width="12" height="12" viewBox="0 0 12 12" fill="none" xmlns="http://www.w3.org/2000/svg">
<path d="M2.5 3.01217V2.5C2.5 2.1519 2.63828 1.81806 2.88442 1.57192C3.13056 1.32578 3.4644 1.1875 3.8125 1.1875H8.1875C8.5356 1.1875 8.86944 1.32578 9.11558 1.57192C9.36172 1.81806 9.5 2.1519 9.5 2.5V3.01217M2.5 3.01217C2.63708 2.96375 2.78408 2.9375 2.9375 2.9375H9.0625C9.21592 2.9375 9.36292 2.96375 9.5 3.01217M2.5 3.01217C2.24404 3.10266 2.02244 3.2703 1.86573 3.49199C1.70902 3.71368 1.62492 3.97851 1.625 4.25V4.76217M9.5 3.01217C9.75596 3.10266 9.97756 3.2703 10.1343 3.49199C10.291 3.71368 10.3751 3.97851 10.375 4.25V4.76217M1.625 4.76217C1.76208 4.71375 1.90908 4.6875 2.0625 4.6875H9.9375C10.0865 4.68733 10.2345 4.71258 10.375 4.76217M1.625 4.76217C1.11517 4.94242 0.75 5.42833 0.75 6V9.5C0.75 9.8481 0.888281 10.1819 1.13442 10.4281C1.38056 10.6742 1.7144 10.8125 2.0625 10.8125H9.9375C10.2856 10.8125 10.6194 10.6742 10.8656 10.4281C11.1117 10.1819 11.25 9.8481 11.25 9.5V6C11.2501 5.72851 11.166 5.46368 11.0093 5.24199C10.8526 5.0203 10.631 4.85266 10.375 4.76217" stroke="#797683" stroke-linecap="round" stroke-linejoin="round"/>
</svg>
